<svg width="21" height="21" viewBox="0 0 21 21" fill="none" xmlns="http://www.w3.org/2000/svg">
<g clip-path="url(#clip0_18_3996)">
<path d="M6.12482 10.5002C6.12499 9.64299 6.37858 8.80491 6.8537 8.09137L2.4892 3.72687C0.882196 5.61787 -0.00012207 8.01864 -0.00012207 10.5002C-0.00012207 12.9818 0.882196 15.3826 2.4892 17.2736L6.8537 12.9091C6.37858 12.1956 6.12499 11.3575 6.12482 10.5002Z" fill="#9ACD05"/>
<path d="M18.5107 3.72687L14.1462 8.09137C14.6215 8.80485 14.8751 9.64297 14.8751 10.5002C14.8751 11.3575 14.6215 12.1956 14.1462 12.9091L18.5107 17.2736C20.1177 15.3826 21.0001 12.9818 21.0001 10.5002C21.0001 8.01864 20.1177 5.61787 18.5107 3.72687Z" fill="#9ACD05"/>
<path d="M10.5001 14.8746C9.6428 14.8744 8.80473 14.6208 8.09118 14.1457L3.72668 18.5102C5.61769 20.1172 8.01846 20.9995 10.5001 20.9995C12.9817 20.9995 15.3824 20.1172 17.2734 18.5102L12.9089 14.1457C12.1954 14.6208 11.3573 14.8744 10.5001 14.8746Z" fill="#9ACD05"/>
<path d="M10.5001 6.12537C11.3573 6.12554 12.1954 6.37913 12.9089 6.85425L17.2734 2.48975C15.3824 0.882746 12.9817 0.000427246 10.5001 0.000427246C8.01846 0.000427246 5.61769 0.882746 3.72668 2.48975L8.09118 6.85425C8.80473 6.37913 9.6428 6.12554 10.5001 6.12537Z" fill="#9ACD05"/>
</g>
<defs>
<clipPath id="clip0_18_3996">
<rect width="21" height="21" fill="white"/>
</clipPath>
</defs>
</svg>
