<svg width="21" height="21" viewBox="0 0 21 21" fill="none" xmlns="http://www.w3.org/2000/svg">
<path d="M20.2282 0.763145C19.9546 0.490192 19.6239 0.281329 19.2598 0.151604C18.8958 0.0218789 18.5075 -0.0254772 18.123 0.0129477C15.6781 0.249299 7.45604 1.26736 4.28029 4.43972C2.76224 5.96196 1.86206 7.99272 1.75359 10.1398C1.64511 12.2869 2.33604 14.3981 3.69294 16.0656L13.3742 6.38393C13.5393 6.22447 13.7604 6.13624 13.99 6.13824C14.2195 6.14023 14.439 6.23229 14.6013 6.3946C14.7636 6.5569 14.8557 6.77645 14.8577 7.00597C14.8597 7.23549 14.7714 7.45661 14.612 7.62171L4.93418 17.3034C6.60103 18.6611 8.71194 19.3529 10.8591 19.2451C13.0062 19.1373 15.0372 18.2374 16.5596 16.7195C19.7774 13.5007 20.7613 5.30372 20.988 2.86842C21.025 2.48315 20.9761 2.09444 20.8447 1.73037C20.7133 1.3663 20.5028 1.03595 20.2282 0.763145ZM4.28029 16.7195C4.48921 16.9278 4.706 17.1236 4.93067 17.3069L1.48182 20.7558C1.31629 20.9149 1.0949 21.0026 0.865363 20.9999C0.635822 20.9973 0.416495 20.9046 0.254634 20.7419C0.092773 20.5791 0.00133321 20.3592 1.44635e-05 20.1297C-0.00130428 19.9001 0.0876036 19.6792 0.247584 19.5146L3.69644 16.0656C3.87968 16.2897 4.0743 16.5077 4.28029 16.7195Z" fill="#9ACD05"/>
</svg>
