<svg width="22" height="22" viewBox="0 0 22 22" fill="none" xmlns="http://www.w3.org/2000/svg">
<g clip-path="url(#clip0_18_4187)">
<path d="M14.7324 9.91248C13.7426 8.92262 12.4002 8.36648 11.0004 8.36639C9.6006 8.36631 8.25811 8.9223 7.26825 9.91204C6.27839 10.9018 5.72225 12.2442 5.72217 13.644C5.72209 15.0438 6.27807 16.3863 7.26781 17.3761L10.3527 20.3933C10.5257 20.5624 10.7581 20.6571 11.0001 20.6571C11.2421 20.6571 11.4744 20.5624 11.6475 20.3933L14.7324 17.3761C15.722 16.3864 16.2781 15.044 16.2781 13.6443C16.2781 12.2446 15.722 10.9022 14.7324 9.91248ZM11.0001 15.3926C10.6521 15.3926 10.312 15.2894 10.0227 15.0961C9.73338 14.9028 9.50789 14.628 9.37474 14.3066C9.24158 13.9851 9.20674 13.6314 9.27463 13.2901C9.34251 12.9488 9.51006 12.6354 9.7561 12.3893C10.0021 12.1433 10.3156 11.9757 10.6569 11.9079C10.9981 11.84 11.3519 11.8748 11.6733 12.008C11.9948 12.1411 12.2695 12.3666 12.4629 12.6559C12.6562 12.9452 12.7593 13.2854 12.7593 13.6333C12.7593 14.0999 12.574 14.5474 12.2441 14.8773C11.9141 15.2072 11.4667 15.3926 11.0001 15.3926Z" fill="#9ACD05"/>
<path d="M19.6203 5.35207L13.4629 1.1967C12.7364 0.702923 11.8783 0.438904 10.9999 0.438904C10.1215 0.438904 9.2634 0.702923 8.53693 1.1967L2.37952 5.35207C1.78289 5.7547 1.29435 6.29781 0.956903 6.93359C0.619455 7.56937 0.443438 8.27835 0.444339 8.99813V17.1576C0.445736 18.3236 0.90956 19.4415 1.73407 20.266C2.55858 21.0905 3.67646 21.5543 4.84249 21.5557H9.02425L6.0379 18.6345C5.37722 17.9834 4.85179 17.208 4.49183 16.3531C4.13188 15.4982 3.9445 14.5805 3.94049 13.6529C3.93648 12.7253 4.1159 11.806 4.46844 10.948C4.82098 10.09 5.33969 9.31013 5.99471 8.65331C6.64974 7.99649 7.42816 7.47565 8.28521 7.12076C9.14226 6.76587 10.061 6.58392 10.9886 6.5854C11.9163 6.58687 12.8344 6.77173 13.6903 7.12934C14.5463 7.48695 15.323 8.01025 15.976 8.66915C17.2955 9.98883 18.0368 11.7786 18.0368 13.6448C18.0368 15.511 17.2955 17.3007 15.976 18.6204L12.9747 21.5557H17.1573C18.3233 21.5543 19.4412 21.0905 20.2657 20.266C21.0902 19.4415 21.5541 18.3236 21.5555 17.1576V8.99813C21.5558 8.27845 21.3796 7.56967 21.0422 6.93397C20.7048 6.29828 20.2165 5.75509 19.6203 5.35207Z" fill="#9ACD05"/>
</g>
<defs>
<clipPath id="clip0_18_4187">
<rect width="21.1111" height="21.1111" fill="white" transform="translate(0.444458 0.444458)"/>
</clipPath>
</defs>
</svg>
