<svg width="21" height="21" viewBox="0 0 21 21" fill="none" xmlns="http://www.w3.org/2000/svg">
<g clip-path="url(#clip0_18_3986)">
<path d="M16.687 15.0609C18.3291 13.3999 19.2501 11.1583 19.2501 8.82261C19.2501 6.48689 18.3291 4.24536 16.687 2.5843C15.8781 1.7655 14.9146 1.11542 13.8525 0.671727C12.7905 0.228039 11.6509 -0.000427246 10.4999 -0.000427246C9.34887 -0.000427246 8.20929 0.228039 7.14723 0.671727C6.08516 1.11542 5.12172 1.7655 4.31276 2.5843C2.66683 4.24918 1.74563 6.49711 1.74989 8.83823C1.75415 11.1794 2.68353 13.4239 4.33551 15.0828L7.47151 18.0044C8.27464 18.7985 9.35764 19.2451 10.487 19.2481C11.6164 19.251 12.7018 18.81 13.509 18.0202L16.687 15.0609ZM11.6741 12.8174C11.3092 12.9981 10.9075 13.0921 10.5003 13.0921C10.0931 13.0921 9.69142 12.9981 9.32651 12.8174L7.57651 11.9424C7.13938 11.7256 6.77172 11.3906 6.51516 10.9756C6.2586 10.5605 6.1234 10.0819 6.12489 9.59392V6.99955C6.12316 6.51154 6.25815 6.03279 6.51455 5.61756C6.77096 5.20233 7.13854 4.86721 7.57564 4.65018L9.32564 3.77518C9.69037 3.59389 10.0921 3.49955 10.4994 3.49955C10.9068 3.49955 11.3085 3.59389 11.6733 3.77518L13.4233 4.65018C13.8605 4.86709 14.2283 5.20216 14.4848 5.6174C14.7414 6.03264 14.8765 6.51144 14.8749 6.99955V9.5948C14.8764 10.0827 14.7414 10.5612 14.485 10.9763C14.2286 11.3913 13.8611 11.7263 13.4241 11.9433L11.6741 12.8174ZM13.0803 6.7318C13.109 6.81818 13.124 6.90852 13.1249 6.99955V9.5948C13.1256 9.75753 13.0806 9.91719 12.995 10.0556C12.9095 10.1941 12.7869 10.3057 12.641 10.3779L10.891 11.2529C10.7693 11.3134 10.6353 11.3448 10.4994 11.3448C10.3636 11.3448 10.2296 11.3134 10.1079 11.2529L8.35789 10.3779C8.21207 10.3055 8.0895 10.1937 8.00412 10.0551C7.91873 9.91649 7.87396 9.75671 7.87489 9.59392V6.99955C7.87628 6.91029 7.89133 6.82176 7.91951 6.73705L9.82701 7.6908C10.0359 7.79523 10.2663 7.8496 10.4999 7.8496C10.7335 7.8496 10.9638 7.79523 11.1728 7.6908L13.0803 6.7318ZM17.4999 20.1245C17.4999 20.3566 17.4077 20.5792 17.2436 20.7433C17.0795 20.9074 16.857 20.9995 16.6249 20.9995H4.37489C4.14282 20.9995 3.92026 20.9074 3.75617 20.7433C3.59207 20.5792 3.49988 20.3566 3.49988 20.1245C3.49988 19.8925 3.59207 19.6699 3.75617 19.5058C3.92026 19.3417 4.14282 19.2495 4.37489 19.2495H16.6249C16.857 19.2495 17.0795 19.3417 17.2436 19.5058C17.4077 19.6699 17.4999 19.8925 17.4999 20.1245Z" fill="#E0F0B2"/>
</g>
<defs>
<clipPath id="clip0_18_3986">
<rect width="21" height="21" fill="white"/>
</clipPath>
</defs>
</svg>
