<svg width="22" height="24" viewBox="0 0 22 24" fill="none" xmlns="http://www.w3.org/2000/svg">
<g clip-path="url(#clip0_2009_117)">
<path d="M6.41654 22.9026C6.25345 22.8749 6.09213 22.8375 5.93346 22.7908L3.30354 21.9658C2.35251 21.6864 1.51731 21.107 0.922581 20.314C0.327849 19.521 0.0054665 18.557 0.00354004 17.5658V6.49976C0.00449321 5.7463 0.191183 5.00469 0.547085 4.34059C0.902987 3.67648 1.41712 3.11036 2.04398 2.69233C2.67085 2.2743 3.3911 2.01726 4.14098 1.94396C4.89087 1.87066 5.64726 1.98336 6.34321 2.27209L6.41654 2.30601V22.9026ZM18.9565 2.06951L18.9373 2.06309L16.4485 1.23809C16.167 1.14677 15.8771 1.08322 15.5832 1.04834V21.4552L17.466 21.9978C18.0055 22.1292 18.5678 22.1362 19.1104 22.0185C19.6531 21.9008 20.1619 21.6614 20.5985 21.3184C21.0351 20.9754 21.3881 20.5376 21.6309 20.0383C21.8736 19.5389 21.9998 18.9909 21.9999 18.4357V6.38609C21.9985 5.44086 21.7055 4.51908 21.1608 3.74654C20.6161 2.97401 19.8464 2.38836 18.9565 2.06951ZM13.7499 1.17392C13.7499 1.17392 8.39379 2.70751 8.24987 2.72309V22.8898C8.34154 22.8705 13.7499 21.3901 13.7499 21.3901V1.17392Z" fill="#C3DAE9"/>
</g>
<defs>
<clipPath id="clip0_2009_117">
<rect width="22" height="22" fill="white" transform="translate(0 1)"/>
</clipPath>
</defs>
</svg>
