<svg width="65" height="64" viewBox="0 0 65 64" fill="none" xmlns="http://www.w3.org/2000/svg">
<g clip-path="url(#clip0_18_4694)">
<rect x="0.5" width="64" height="64" rx="32" fill="white"/>
<path d="M46.388 0C57.236 0 64.5 7.616 64.5 18.944V45.0912C64.5 56.384 57.236 64 46.388 64H18.644C7.796 64 0.5 56.384 0.5 45.0912V18.944C0.5 7.616 7.796 0 18.644 0H46.388ZM45.876 22.4C44.788 21.312 42.996 21.312 41.908 22.4L28.692 35.616L23.092 30.016C22.004 28.928 20.212 28.928 19.124 30.016C18.036 31.104 18.036 32.864 19.124 33.984L26.74 41.568C27.284 42.112 27.988 42.368 28.692 42.368C29.428 42.368 30.132 42.112 30.676 41.568L45.876 26.368C46.964 25.28 46.964 23.52 45.876 22.4Z" fill="#9ACD05"/>
</g>
<defs>
<clipPath id="clip0_18_4694">
<rect x="0.5" width="64" height="64" rx="32" fill="white"/>
</clipPath>
</defs>
</svg>
